<svg width="22" height="22" viewBox="0 0 22 22" fill="none" xmlns="http://www.w3.org/2000/svg">
<path d="M8.17092 11.052L6.75692 12.466L10.9999 16.71L15.2429 12.467L13.8279 11.053L11.9999 12.88L11.9999 5.34296L9.99992 5.34296L9.99992 12.88L8.17092 11.052Z" fill="#25CE7D"/>
<path fill-rule="evenodd" clip-rule="evenodd" d="M3.222 18.778C7.518 23.074 14.482 23.074 18.778 18.778C23.074 14.482 23.074 7.518 18.778 3.222C14.482 -1.074 7.518 -1.074 3.222 3.222C-1.074 7.518 -1.074 14.482 3.222 18.778ZM4.636 17.364C6.32384 19.0518 8.61304 20.0001 11 20.0001C13.387 20.0001 15.6762 19.0518 17.364 17.364C19.0518 15.6762 20.0001 13.387 20.0001 11C20.0001 8.61304 19.0518 6.32384 17.364 4.636C15.6762 2.94816 13.387 1.99994 11 1.99994C8.61304 1.99994 6.32384 2.94816 4.636 4.636C2.94816 6.32384 1.99995 8.61304 1.99995 11C1.99995 13.387 2.94816 15.6762 4.636 17.364Z" fill="#25CE7D"/>
</svg>
